<?xml version="1.0" encoding="utf-8"?>
<!DOCTYPE svg PUBLIC "-//W3C//DTD SVG 1.0//EN" "http://www.w3.org/TR/2001/REC-SVG-20010904/DTD/svg10.dtd">
<svg version="1.0" xmlns="http://www.w3.org/2000/svg" width="48px" height="48px" viewBox="0 0 48 48" preserveAspectRatio="xMidYMid meet">
 <g fill="#000000" fill-rule="evenodd">
  <path d="M0 15 L0.9 14.4C1.4 14.1 2.1 13 2.5 11.9 C2.8 10.8 3.5 10.1 3.9 10.4 C4.4 10.7 5 12.6 5.4 14.6 L6.1 18.2 10.1 14.3 C12.3 12.2 15.4 8.6 17 6.3 C18.6 4 19.9 1.6 20 1 L20 0L20 0 L22 0C23.1 0 24.2 0 24.5 0 C24.7 0 27 0 29.5 0 L34 0L34 0 L36.3 3.7C37.5 5.8 39.2 8.9 39.9 10.7 C40.6 12.5 41.5 14 42 14 C42.4 14 43 13.2 43.3 12.4 C43.7 11.5 44 9.4 44 7.7 C44 5.4 44.2 5 45.2 5.7 C45.9 6.3 46.8 7 47.2 7.4 L48 8L48 8 L48 26.6C48 43.2 47.8 45.4 46.2 46.6 C45.2 47.3 43.2 47.9 41.7 47.9 C40.2 47.9 38.7 48 38.5 48 L38 48L38 48 L38.1 47.7C38.2 47.6 38.4 44.3 38.7 40.5 C39 34.3 38.7 32.8 36.3 28 C34.7 25 32.9 22.4 32.2 22.2 C31.3 21.9 31 23.8 31 29.4 L31 37 24 37 L17 37 16.9 31.7 L16.9 26.5 15.2 29.1 C14.2 30.5 12 33.6 10.2 36 C7.8 39.1 7 41.3 7 44.1 L7 48L7 48 L6.5 48C6.2 48 5.1 48 4.2 48 C3.2 48 1.8 47.4 1.2 46.8 C0.3 45.9 -0.1 40.8 0 30.3 L0 15"/>
 </g>
 <g fill="#fb3837" fill-rule="evenodd">
  <path d="M38 48 L22.5 48L7 48L7 48 L7 44.1C7 41.3 7.8 39.1 10.2 36 C12 33.6 14.2 30.5 15.2 29.1 L16.9 26.5 16.9 31.7 L17 37 24 37 L31 37 31 29.4 C31 23.8 31.3 21.9 32.2 22.2 C32.9 22.4 34.7 25 36.3 28 C38.7 32.8 39 34.3 38.7 40.5 C38.4 44.3 38.2 47.6 38.1 47.7 L38 48M13.3 45.5 C12.4 43.2 13.6 41 15.8 41 C16.8 41 18.3 41.6 19 42.5 C20.5 44.4 18.8 47 16 47 C14.9 47 13.7 46.3 13.3 45.5 M27.4 45.3 C26.6 42.9 29.3 40.6 31.9 41.4 C33.4 41.9 33.9 42.7 33.5 44 C32.8 46.6 28.1 47.5 27.4 45.3 "/>
  <path d="M0 15 L0 14.5C0 14.2 0 10.8 0 7 L0 0 10 0 L20 0L20 0 L20 1C19.9 1.6 18.6 4 17 6.3 C15.4 8.6 12.3 12.2 10.1 14.3 L6.1 18.2 5.4 14.6 C5 12.6 4.4 10.7 3.9 10.4 C3.5 10.1 2.8 10.8 2.5 11.9 C2.1 13 1.4 14.1 0.9 14.4 L0 15"/>
  <path d="M34 0 L41 0L48 0 48 3.5 C48 5.4 48 7.2 48 7.5 L48 8L48 8 L47.2 7.4C46.8 7 45.9 6.3 45.2 5.7 C44.2 5 44 5.4 44 7.7 C44 9.4 43.7 11.5 43.3 12.4 C43 13.2 42.4 14 42 14 C41.5 14 40.6 12.5 39.9 10.7 C39.2 8.9 37.5 5.8 36.3 3.7 L34 0"/>
 </g>
 <g fill="#ffffff" fill-rule="evenodd">
  <path d="M13.3 45.5 C12.4 43.2 13.6 41 15.8 41 C16.8 41 18.3 41.6 19 42.5 C20.5 44.4 18.8 47 16 47 C14.9 47 13.7 46.3 13.3 45.5 "/>
  <path d="M27.4 45.3 C26.6 42.9 29.3 40.6 31.9 41.4 C33.4 41.9 33.9 42.7 33.5 44 C32.8 46.6 28.1 47.5 27.4 45.3 "/>
 </g>
</svg>